<svg id="Logo_CoDeSys" xmlns="http://www.w3.org/2000/svg" width="80.023" height="62.91" viewBox="0 0 80.023 62.91">
  <path id="Pfad_604" data-name="Pfad 604" d="M53.318,50.319,40.285,43.208v14.93l13.033,7.339V50.319" transform="translate(-27.39 -29.377)" fill="#d1d2d4"/>
  <path id="Pfad_605" data-name="Pfad 605" d="M68.033,0l-13,6.327,12.9,6.552L81,6.258ZM54.221,6.777,41.1,13.017l13.1,7.088,12.983-6.725Zm27.574,0-13.139,6.6,13.086,6.725,13-7.088Z" transform="translate(-27.944)" fill="#a7a9ac"/>
  <path id="Pfad_606" data-name="Pfad 606" d="M67.144,43.045,54.11,50.2v15.11l13.035-7.278ZM6.742,73.263C2.042,73.263,0,76.821,0,80.835c0,4.5,2.656,7.347,6.569,7.347a5.708,5.708,0,0,0,6-4.668L9.75,82.633c-.363,1.573-1.262,3.042-3.2,3.042a3.223,3.223,0,0,1-2.784-1.4,6.865,6.865,0,0,1-.761-3.631c0-.928.006-4.892,3.6-4.892a2.966,2.966,0,0,1,3.043,2.421l2.887-.674a5.576,5.576,0,0,0-1.383-2.593A6.138,6.138,0,0,0,6.742,73.263Zm46.936,0c-4.236,0-5.255,2.455-5.255,4.028,0,3.186,3.184,3.976,4.616,4.339,2.663.644,3.665.9,3.665,2.109,0,.928-.8,2.005-2.835,2.005a2.958,2.958,0,0,1-3.147-2.766l-2.835.259c.564,4.8,4.394,4.944,5.947,4.944a8.32,8.32,0,0,0,3.423-.64,4.251,4.251,0,0,0,2.351-3.8c0-3.55-2.987-4.247-5.186-4.771-2.319-.544-3.216-.956-3.216-1.884,0-1.17,1.571-1.435,2.438-1.435,2.3,0,2.524,1.363,2.645,2.109l2.921-.121C59.088,74.37,56.5,73.264,53.677,73.263ZM24.6,73.506V87.941h5.463c.927,0,3.316.006,4.788-1.608a8,8,0,0,0,1.85-5.481,8.376,8.376,0,0,0-1.21-4.91c-1.553-2.441-3.932-2.437-5.566-2.437Zm2.9,2.437h1.314c2.823,0,4.875-.011,4.875,4.789,0,4.64-1.772,4.771-4.011,4.772H27.5ZM18.5,77.257A5.175,5.175,0,0,0,13.1,82.581c0,4.84,3.757,5.6,5.411,5.6a5.309,5.309,0,0,0,5.394-5.515A5.218,5.218,0,0,0,18.5,77.257Zm23.77,0c-3.308,0-4.806,2.691-4.806,5.515a6.99,6.99,0,0,0,.623,2.9,4.619,4.619,0,0,0,4.443,2.507,4.383,4.383,0,0,0,4.547-3.112l-2.749-.449a1.739,1.739,0,0,1-1.763,1.452A2.367,2.367,0,0,1,40.28,83.5h6.95C47.289,80.412,46.2,77.257,42.268,77.257Zm32.777,0c-2.2,0-4.391.8-4.391,3.2,0,2.48,2.314,3.031,5.481,3.717.646.141,1.124.277,1.124.882,0,1.13-1.747,1.158-1.988,1.158a2.062,2.062,0,0,1-2.247-1.677l-2.749.415a3.729,3.729,0,0,0,1.107,1.97,5.855,5.855,0,0,0,3.889,1.262c3.449,0,4.754-1.876,4.754-3.509,0-2.3-2.086-2.841-3.941-3.285a23.947,23.947,0,0,1-2.351-.657.711.711,0,0,1-.519-.64c0-.848,1.437-.864,1.9-.864a1.792,1.792,0,0,1,1.954,1.262l2.61-.484C79.072,77.928,77.525,77.257,75.045,77.257ZM59.78,77.5l3.977,10.459c-.545,1.937-1.519,2.022-2.144,2.022a4.941,4.941,0,0,1-1.176-.121l.259,2.161a7.147,7.147,0,0,0,1.573.156c2.945,0,3.5-1.584,4.3-3.924.121-.3.218-.611.259-.692l3.7-10.061h-2.87l-2.42,7.416h-.034L62.719,77.5ZM42.423,79.366c.423,0,2,.158,2.057,2.437H40.349A2.148,2.148,0,0,1,42.423,79.366ZM18.5,79.5c1.412,0,2.559,1.1,2.559,3.2,0,2.319-1.308,3.215-2.559,3.216-1.311,0-2.541-.98-2.541-3.2C15.956,80.521,17.166,79.5,18.5,79.5Z" transform="translate(0 -29.267)" fill="#939598"/>
  <path id="Pfad_607" data-name="Pfad 607" d="M126.3,73.754l12.9-7V81.858l-12.9,7.207" transform="translate(-85.872 -45.384)" fill="#b00f1e"/>
  <path id="Pfad_608" data-name="Pfad 608" d="M96.268,73.741,83.341,66.726V81.783l12.927,7.265V73.741" transform="translate(-56.664 -45.367)" fill="#ed1b2e"/>
  <path id="Pfad_609" data-name="Pfad 609" d="M84.466,49.822l13.067-6.747,12.892,6.747L97.483,56.9,84.466,49.822" transform="translate(-57.429 -29.287)" fill="#c41424"/>
</svg>
