<svg xmlns="http://www.w3.org/2000/svg" width="50" height="50" viewBox="0 0 50 50">
  <g id="Gruppe_1458" data-name="Gruppe 1458" transform="translate(-640 -7427)">
    <g id="facebook-weiß" transform="translate(640 7427)">
      <g id="Rechteck_307" data-name="Rechteck 307" transform="translate(0 0)" fill="none" stroke="#afb6bd" stroke-width="2">
        <rect width="50" height="50" stroke="none"/>
        <rect x="1" y="1" width="48" height="48" fill="none"/>
      </g>
      <g id="LinkedIn_Logo" transform="translate(10.094 10.12)">
        <path id="Pfad_705" data-name="Pfad 705" d="M687.326,330.093h-6.08v-9.521c0-2.27-.041-5.193-3.162-5.193-3.167,0-3.651,2.474-3.651,5.028v9.685h-6.079V310.514h5.836v2.676h.082a6.4,6.4,0,0,1,5.758-3.162c6.162,0,7.3,4.053,7.3,9.326Zm-25.832-22.256h0a3.528,3.528,0,1,1,3.528-3.529h0a3.545,3.545,0,0,1-3.527,3.528m3.04,22.256h-6.086V310.514h6.086Z" transform="translate(-657.966 -300.782)" fill="#afb6bd"/>
      </g>
    </g>
  </g>
</svg>
