<svg id="g65" xmlns="http://www.w3.org/2000/svg" width="150" height="34.085" viewBox="0 0 150 34.085">
  <path id="polygon67" d="M1241.62,307.6h-3.427V295.828H1234V293.1h11.845v2.728h-4.226Z" transform="translate(-1192.94 -283.356)" fill="#151b21"/>
  <path id="path69" d="M1534.576,421.508a5.077,5.077,0,0,1-3.614-1.289,5.552,5.552,0,0,1-1.323-3.979,5.476,5.476,0,0,1,2.133-4.825,5.171,5.171,0,0,1,2.881-.855,4.421,4.421,0,0,1,4.156,2.49,8.385,8.385,0,0,1,.6,3.89H1532.8c.026,1.019.226,2.218,1.816,2.252.867.022,1.358-.411,1.567-1.366h2.995l-.017.208a3.5,3.5,0,0,1-.99,2.264,4.958,4.958,0,0,1-3.594,1.212Zm1.5-6.768c-.037-.872-.348-1.822-1.522-1.822-1.269,0-1.576,1.15-1.647,1.822h3.169Z" transform="translate(-1478.723 -396.892)" fill="#151b21"/>
  <path id="path71" d="M1867.01,422.522a3.092,3.092,0,0,1-3.51-3.14,3.457,3.457,0,0,1,2.2-3.24,10.372,10.372,0,0,1,3.793-.563l.031,2.067c-3.278-.072-3.176,1.718-2.35,2.4.754.621,2.464.221,2.344-2.4l-.067-2.063a3.172,3.172,0,0,0-.126-1.055,1.15,1.15,0,0,0-1.106-.689,1.12,1.12,0,0,0-.935.463,1.307,1.307,0,0,0-.181.77v.192h-3.223l.007-.2a2.95,2.95,0,0,1,1.193-2.473,5.232,5.232,0,0,1,3.1-.836,4.9,4.9,0,0,1,3.66,1.336,4.06,4.06,0,0,1,.73,2.547l.02,3.966a11.73,11.73,0,0,0,.23,2.46l.05.233-2.982.012a6.381,6.381,0,0,1-.126-1h-.022a3.344,3.344,0,0,1-2.362,1.221" transform="translate(-1801.47 -398.042)" fill="#151b21"/>
  <path id="path73" d="M2208.858,424.461v-5.992c0-1.22-.25-2.034-1.468-2.034-1.468,0-1.584,1.254-1.584,2.893v5.131h-3.294v-6.049c0-.956-.111-1.975-1.428-1.975-1.624,0-1.624,1.374-1.624,2.034v5.992h-3.294v-8.2c0-.548-.031-1.131-.1-1.837l-.02-.21h3.181l.074.958A3.659,3.659,0,0,1,2202.2,414a3.343,3.343,0,0,1,3.119,1.634,3.858,3.858,0,0,1,6.324.067,5.506,5.506,0,0,1,.512,2.836v5.923h-3.294Z" transform="translate(-2122.949 -400.217)" fill="#151b21"/>
  <path id="polygon75" d="M2716.188,306.194l4.359-12.494h1.7l-5.257,14.48h-1.7L2710,293.7h1.8Z" transform="translate(-2619.809 -283.936)" fill="#151b21"/>
  <path id="path77" d="M3111.158,307.632V297.447h1.556v10.185Zm-.1-12.634V293.15h1.751V295h-1.751Z" transform="translate(-3007.506 -283.39)" fill="#151b21"/>
  <path id="path79" d="M3226.589,424.274c-3.1,0-4.489-2.705-4.489-5.387,0-2.6,1.429-5.387,4.565-5.387,3.048.027,4.665,2.062,4.665,5.849h-7.57c.061,1.18.524,3.46,3.2,3.46a2.719,2.719,0,0,0,2.643-2.192l.033-.151h1.633c-.788,3.427-2.923,3.757-4.682,3.8Zm3.07-6.378c-.2-1.869-1.277-2.935-2.972-2.935-1.833,0-2.679,1.536-2.87,2.935Z" transform="translate(-3114.848 -399.734)" fill="#151b21"/>
  <path id="polygon81" d="M3521.386,422.8h1.63l2.795,7.846,2.7-7.846h1.73l-3.793,10.185h-1.4l-2.895-8.132-2.961,8.132h-1.431L3514,422.8h1.7l2.828,7.932Z" transform="translate(-3397.037 -408.74)" fill="#151b21"/>
  <path id="path83" d="M4017.589,424.274c-3.1,0-4.489-2.705-4.489-5.387,0-2.6,1.429-5.387,4.565-5.387,3.213,0,4.7,2.356,4.665,5.849h-7.57c.061,1.18.524,3.46,3.2,3.46a2.672,2.672,0,0,0,2.676-2.343h1.633c-.8,3.357-2.946,3.77-4.682,3.8Zm3.069-6.378c-.2-1.869-1.277-2.935-2.972-2.935-1.833,0-2.679,1.536-2.87,2.935Z" transform="translate(-3879.514 -399.734)" fill="#151b21"/>
  <path id="path85" d="M4353.829,423.755v-7.786c.014-.778-.056-1.483-.1-2.195l-.012-.2h1.6l.038.949a2.637,2.637,0,0,1,2.073-1.242c.116-.006.232-.008.351-.008.28,0,.561.014.834.028l.183.009,0,.183v1.341c-2.726-.465-3.334,1.313-3.368,2.582l-.067,6.342" transform="translate(-4208.802 -399.512)" fill="#151b21"/>
  <path id="path87" d="M30.51,0H3.519A3.543,3.543,0,0,0,0,3.538V30.546a3.544,3.544,0,0,0,3.54,3.538H30.53a3.544,3.544,0,0,0,3.54-3.538V3.538a3.5,3.5,0,0,0-1.036-2.5A3.59,3.59,0,0,0,30.51,0ZM17.021,31.135A14.093,14.093,0,1,1,31.1,17.042,14.088,14.088,0,0,1,17.021,31.135Z" transform="translate(0.001 0)" fill="#151b21"/>
  <path id="path89" d="M145.281,380.815l-9.766-4.515.785,2.893h-8.159l.785-2.893-9.766,4.518,9.772,4.515-.785-2.893h8.159l-.785,2.893,9.759-4.515" transform="translate(-115.195 -363.773)" fill="#151b21"/>
</svg>
