<svg xmlns="http://www.w3.org/2000/svg" xmlns:xlink="http://www.w3.org/1999/xlink" width="158.201" height="50.535" viewBox="0 0 158.201 50.535">
  <defs>
    <linearGradient id="linear-gradient" x1="0.065" y1="0.205" x2="0.944" y2="0.637" gradientUnits="objectBoundingBox">
      <stop offset="0.034" stop-color="#1e6ca0"/>
      <stop offset="0.195" stop-color="#197fb0"/>
      <stop offset="0.999" stop-color="#00dbff"/>
    </linearGradient>
  </defs>
  <g id="Sabo_Logo_weiß" data-name="Sabo Logo_weiß" transform="translate(-96.601 -197.59)">
    <g id="Gruppe_229" data-name="Gruppe 229" transform="translate(96.601 197.59)">
      <path id="Pfad_5" data-name="Pfad 5" d="M522.092,252.045a6.625,6.625,0,0,0,3.112-5.324c0-3.963-3.185-7.221-8.047-7.221H502.035v10.284H496.2l2.067,5.178h3.768v10.989h15.851c5.324,0,8.436-3.4,8.436-7.561A7.355,7.355,0,0,0,522.092,252.045Zm-13.882-7.367h7.512c1.994,0,3.015,1.143,3.015,2.577,0,1.41-.972,2.529-3.015,2.529H508.21Zm8.363,16.095H508.21v-5.835h8.363c2.237,0,3.355,1.313,3.355,2.917C519.929,259.485,518.713,260.773,516.574,260.773Z" transform="translate(-398.582 -229.08)" fill="#25303b"/>
      <path id="Pfad_6" data-name="Pfad 6" d="M313.721,256.925c0,5.859-5.3,8.1-11.329,8.1a24.558,24.558,0,0,1-11.791-2.845l2.383-5.251a23.512,23.512,0,0,0,9.409,2.383c3.866,0,4.765-1.313,4.765-2.383,0-4.644-16-1.994-16-12.01,0-4.765,4.692-7.415,11.305-7.415a22.675,22.675,0,0,1,10.576,2.431l-2.237,4.984a21.347,21.347,0,0,0-8.363-1.921c-2.383,0-4.717.413-4.717,2.188C297.748,248.975,313.721,247.541,313.721,256.925Z" transform="translate(-243.299 -227.566)" fill="#25303b"/>
      <path id="Pfad_7" data-name="Pfad 7" d="M656.5,250.079a14.151,14.151,0,1,1-14.15-13.979A13.953,13.953,0,0,1,656.5,250.079Zm-6.151,0a7.979,7.979,0,1,0-7.974,8.242A8.113,8.113,0,0,0,650.348,250.079Z" transform="translate(-498.299 -226.507)" fill="#25303b"/>
      <path id="Pfad_8" data-name="Pfad 8" d="M399.227,255.184l3.841-9.579,3.817,9.579h-3.817l-2.14,5.349h8.12l2.188,5.495h6.175L406.861,239.6H399.3l-10.6,26.427h6.2l2.212-5.495Z" transform="translate(-317.387 -229.156)" fill="#25303b"/>
      <path id="Pfad_9" data-name="Pfad 9" d="M134.884,216.917l7.658-19.217h-8.728l-2.869,7.173a18.784,18.784,0,1,0-4.279,27.173v2.57h8.1V218.459A15.239,15.239,0,0,0,134.884,216.917Zm-18.842,10.6a11.049,11.049,0,1,1,10.624-11.04A10.824,10.824,0,0,1,116.042,227.516Z" transform="translate(-97.2 -197.7)" fill="url(#linear-gradient)"/>
    </g>
    <g id="Gruppe_162" data-name="Gruppe 162" transform="translate(98.735 241.841)">
      <path id="Pfad_260" data-name="Pfad 260" d="M110.23,385.643h-1.388l-.487-1.242h-2.679l-.487,1.242H103.8l2.387-5.943h1.705Zm-2.363-2.436-.852-2.143-.877,2.143Z" transform="translate(-103.8 -379.53)" fill="#afb6bd"/>
      <path id="Pfad_261" data-name="Pfad 261" d="M147.611,384.352v1.291H143.3V379.7h1.388v4.652Z" transform="translate(-133.679 -379.53)" fill="#afb6bd"/>
      <path id="Pfad_262" data-name="Pfad 262" d="M179.71,381.941a2.2,2.2,0,0,1-2.436,2.217h-1.486v1.486H174.4V379.7h2.9A2.222,2.222,0,0,1,179.71,381.941Zm-1.413,0a.963.963,0,0,0-1.047-.95h-1.486v1.9h1.486A.963.963,0,0,0,178.3,381.941Z" transform="translate(-157.204 -379.53)" fill="#afb6bd"/>
      <path id="Pfad_263" data-name="Pfad 263" d="M215.578,379.8v5.943h-1.388v-2.314h-2.8v2.314H210V379.8h1.388v2.314h2.8V379.8Z" transform="translate(-184.135 -379.605)" fill="#afb6bd"/>
      <path id="Pfad_264" data-name="Pfad 264" d="M252.455,385.643h-1.388l-.487-1.242H247.9l-.487,1.242H246l2.387-5.943h1.7Zm-2.363-2.436-.852-2.143-.877,2.143Z" transform="translate(-211.368 -379.53)" fill="#afb6bd"/>
      <path id="Pfad_265" data-name="Pfad 265" d="M307.9,385.643V379.7h1.388v5.943Z" transform="translate(-258.192 -379.53)" fill="#afb6bd"/>
      <path id="Pfad_266" data-name="Pfad 266" d="M335.129,379.8v5.943h-1.047l-3.093-3.581v3.581H329.6V379.8h1.072l3.093,3.58V379.8Z" transform="translate(-274.607 -379.605)" fill="#afb6bd"/>
      <path id="Pfad_267" data-name="Pfad 267" d="M393.83,385.643h-1.388l-.487-1.242h-2.679l-.487,1.242H387.4l2.387-5.943h1.705Zm-2.363-2.436-.852-2.143-.877,2.143Z" transform="translate(-318.33 -379.53)" fill="#afb6bd"/>
      <path id="Pfad_268" data-name="Pfad 268" d="M431.348,379.7v3.166a2.875,2.875,0,1,1-5.748,0V379.7h1.388v3.239a1.489,1.489,0,1,0,2.972,0V379.7Z" transform="translate(-347.227 -379.53)" fill="#afb6bd"/>
      <path id="Pfad_269" data-name="Pfad 269" d="M468.083,379.8v1.291h-2v4.652H464.7v-4.652h-2V379.8Z" transform="translate(-375.291 -379.605)" fill="#afb6bd"/>
      <path id="Pfad_270" data-name="Pfad 270" d="M503.033,382.142A3.167,3.167,0,1,1,499.866,379,3.124,3.124,0,0,1,503.033,382.142Zm-1.388,0a1.8,1.8,0,1,0-1.8,1.851A1.824,1.824,0,0,0,501.645,382.142Z" transform="translate(-401.011 -379)" fill="#afb6bd"/>
      <path id="Pfad_271" data-name="Pfad 271" d="M543.723,379.8v5.943h-1.388v-3.532l-1.51,2.265h-.9l-1.51-2.265v3.532H537V379.8h1.266l2.095,3.118,2.095-3.118Z" transform="translate(-431.496 -379.605)" fill="#afb6bd"/>
      <path id="Pfad_272" data-name="Pfad 272" d="M584.23,385.643h-1.388l-.487-1.242h-2.679l-.487,1.242H577.8l2.387-5.943h1.705Zm-2.363-2.436-.853-2.143-.877,2.143Z" transform="translate(-462.359 -379.53)" fill="#afb6bd"/>
      <path id="Pfad_273" data-name="Pfad 273" d="M618.483,379.8v1.291h-2v4.652H615.1v-4.652h-2V379.8Z" transform="translate(-489.064 -379.605)" fill="#afb6bd"/>
      <path id="Pfad_274" data-name="Pfad 274" d="M648.9,385.643V379.7h1.388v5.943Z" transform="translate(-516.144 -379.53)" fill="#afb6bd"/>
      <path id="Pfad_275" data-name="Pfad 275" d="M675.433,382.142A3.167,3.167,0,1,1,672.266,379,3.124,3.124,0,0,1,675.433,382.142Zm-1.388,0a1.8,1.8,0,1,0-1.8,1.851A1.824,1.824,0,0,0,674.045,382.142Z" transform="translate(-531.424 -379)" fill="#afb6bd"/>
      <path id="Pfad_276" data-name="Pfad 276" d="M714.953,379.8v5.943h-1.072l-3.093-3.581v3.581H709.4V379.8h1.072l3.093,3.58V379.8Z" transform="translate(-561.908 -379.605)" fill="#afb6bd"/>
    </g>
  </g>
</svg>
