<svg xmlns="http://www.w3.org/2000/svg" width="595.953" height="150.246" viewBox="0 0 595.953 150.246">
  <g id="Gruppe_230" data-name="Gruppe 230" transform="translate(1.478 1)">
    <path id="Pfad_465" data-name="Pfad 465" d="M78.2,1H46.233L1.478,112.728H27.692l9.271-23.177h50.51l9.271,23.177H122.8ZM45.914,66.854l16.3-40.44,16.144,40.44ZM164.355,88.433V1H138.141V112.728h81.2v-24.3ZM291.588,1H237.242V112.728h26.214V84.756h28.132c29.73,0,45.714-18.861,45.714-41.878S321.318,1,291.588,1Zm-.16,59.78H263.456V24.816h27.972c11.668,0,19.5,8.152,19.5,18.062S303.1,60.78,291.428,60.78ZM461.78,80.9V1H435.726V44.477H382.819V1H356.6V81.649m26.214,0V69.092h52.907V81.4m123.427,8.15,9.271,23.177h26.054L549.882,1H517.914l-31.7,79.135m31.38-13.28,16.3-40.44,16.144,40.44Z" transform="translate(-1.478 -1)" fill="none" stroke="#151b21" stroke-linecap="square" stroke-width="2" opacity="0.6"/>
    <path id="Pfad_466" data-name="Pfad 466" d="M448.5,118.968,433.3,141.4l-15.12-22.434H403.22l23.337,34.6v22.845h13.477V153.563l23.42-34.6Zm44.907-1.89a30.448,30.448,0,0,0-.577,60.894c.192,0,.384,0,.576,0a30.323,30.323,0,0,0,30.731-29.91q0-.288,0-.577a30.255,30.255,0,0,0-30.733-30.4Zm0,48.4c-10.107,0-17.339-8.628-17.339-18s7.231-17.914,17.339-17.914,17.339,8.546,17.339,17.914-7.232,18-17.34,18ZM575,118.8v31.308c0,7.806-4.684,15.367-14.38,15.367s-14.3-7.56-14.3-15.367V118.8H532.85v30.651c0,16.846,10.435,28.515,27.775,28.515s27.858-11.669,27.858-28.515V118.8Zm63.5,37.965a19.225,19.225,0,0,0,11.586-17.914c0-10.929-8.464-19.886-21.365-19.886H598.563v57.44H612.04V158.741H624.2l13.23,17.668h15.778ZM627.653,146.25H612.04V131.376h15.613c6,0,8.875,3.369,8.875,7.478s-2.876,7.4-8.876,7.4Z" transform="translate(-97.437 -28.726)" fill="#151b21"/>
  </g>
</svg>
