<svg xmlns="http://www.w3.org/2000/svg" width="22.499" height="22.5" viewBox="0 0 22.499 22.5">
          <g id="Icon_feather-zoom-out" data-name="Icon feather-zoom-out" transform="translate(0 0)">
            <path id="Vereinigungsmenge_1" data-name="Vereinigungsmenge 1" d="M-128.755-492l-4.929-4.929a9.723,9.723,0,0,1-5.966,2.024,9.808,9.808,0,0,1-9.8-9.8,9.808,9.808,0,0,1,9.8-9.8,9.808,9.808,0,0,1,9.8,9.8,9.723,9.723,0,0,1-2.024,5.966l4.929,4.929Zm-10.9-19.944a7.249,7.249,0,0,0-7.241,7.242,7.249,7.249,0,0,0,7.241,7.241,7.193,7.193,0,0,0,5.12-2.121,7.193,7.193,0,0,0,2.121-5.12A7.249,7.249,0,0,0-139.65-511.945Z" transform="translate(149.446 514.5)" fill="#fff"></path>
          </g>
        </svg>