<svg id="Gruppe_576" data-name="Gruppe 576" xmlns="http://www.w3.org/2000/svg" xmlns:xlink="http://www.w3.org/1999/xlink" width="151.568" height="158.513" viewBox="0 0 151.568 158.513">
  <defs>
    <clipPath id="clip-path">
      <rect id="Rechteck_344" data-name="Rechteck 344" width="151.568" height="158.513" fill="#86898c"/>
    </clipPath>
  </defs>
  <g id="Gruppe_575" data-name="Gruppe 575" clip-path="url(#clip-path)">
    <path id="Pfad_3281" data-name="Pfad 3281" d="M234.677,187.095a1.883,1.883,0,0,1,2.711-.673l3.645,2.021.87-1.569-3.569-1.977a3.7,3.7,0,1,0-3.59,6.476l3.569,1.978.87-1.569-3.645-2.02a1.892,1.892,0,0,1-.861-2.666" transform="translate(-91.325 -72.344)" fill="#86898c"/>
    <path id="Pfad_3282" data-name="Pfad 3282" d="M246.358,195.629a.765.765,0,0,0-.742,1.339.766.766,0,0,0,.742-1.339" transform="translate(-96.245 -76.743)" fill="#86898c"/>
    <path id="Pfad_3283" data-name="Pfad 3283" d="M248.113,192.463a.766.766,0,0,0-.743,1.34.766.766,0,0,0,.743-1.34" transform="translate(-96.934 -75.501)" fill="#86898c"/>
    <path id="Pfad_3284" data-name="Pfad 3284" d="M224.463,199.268a2.211,2.211,0,0,0,.334,3.259,2.1,2.1,0,0,0,2.2.1,1.909,1.909,0,0,0,.72,1.632,2.146,2.146,0,0,0,3.059-.655l2.573-3.538-6.191-4.5Zm6.619,1.367-1.28,1.759a.767.767,0,0,1-1.125.264.745.745,0,0,1-.069-1.132l1.28-1.76Zm-2.405-1.75-1.422,1.954a.851.851,0,1,1-1.361-.991l1.422-1.954Z" transform="translate(-87.88 -76.755)" fill="#86898c"/>
    <path id="Pfad_3285" data-name="Pfad 3285" d="M213.73,211.491l1.175,1.081,3.081-3.347,1.054.97-2.525,2.744,1.175,1.081,2.525-2.744,1.046.963-3.081,3.347,1.175,1.081,4.3-4.666-5.624-5.178Z" transform="translate(-83.886 -81.175)" fill="#86898c"/>
    <path id="Pfad_3286" data-name="Pfad 3286" d="M206.733,217.677l1.535,1.782-1.227,1.056-2.867-.632-1.592,1.371,3.189.7a2.557,2.557,0,0,0,.388,2.813,2.666,2.666,0,0,0,3.882.149l3.042-2.619-4.99-5.793Zm3.912,4.542-1.575,1.356a1.005,1.005,0,1,1-1.292-1.5l1.575-1.357Z" transform="translate(-79.51 -84.976)" fill="#86898c"/>
    <path id="Pfad_3287" data-name="Pfad 3287" d="M189.794,231.178a3.519,3.519,0,0,0-1.23,5.16l2.1,3.5,1.538-.921-2.135-3.565a1.913,1.913,0,1,1,3.274-1.96l2.135,3.565,1.539-.922-2.1-3.5a3.511,3.511,0,0,0-5.121-1.357" transform="translate(-73.758 -90.497)" fill="#86898c"/>
    <path id="Pfad_3288" data-name="Pfad 3288" d="M177.418,237.076l1.85,4.228-5.488-2.637-1.253.548,3.065,7.005,1.634-.715-1.846-4.219,5.493,2.623,1.253-.548-3.065-7Z" transform="translate(-67.715 -92.767)" fill="#86898c"/>
    <path id="Pfad_3289" data-name="Pfad 3289" d="M162.517,245.674c-.089-.293.051-.735,1.119-1.058a6.805,6.805,0,0,1,2.806-.131l.219-1.654a7.119,7.119,0,0,0-3.506.194c-1.675.507-2.95,1.579-2.459,3.2.786,2.6,5.093.857,5.413,1.914.149.491-.465.8-1.124,1a6.122,6.122,0,0,1-2.475.166l-.2,1.569a6.585,6.585,0,0,0,3.134-.217c1.832-.555,2.908-1.681,2.508-3-.84-2.773-5.045-.7-5.435-1.987" transform="translate(-63.029 -95.254)" fill="#86898c"/>
    <path id="Pfad_3290" data-name="Pfad 3290" d="M109.8,251.113a3.752,3.752,0,0,0,3.6,4.268l3.216.371.875-7.594-3.216-.371a3.745,3.745,0,0,0-4.479,3.327m5.228,2.782-1.369-.158a2.165,2.165,0,1,1,.495-4.291l1.368.158Z" transform="translate(-43.082 -97.238)" fill="#86898c"/>
    <path id="Pfad_3291" data-name="Pfad 3291" d="M103.239,245.369l-.98,1.4-3.364-.79-.254-1.689-1.734-.408,1.22,8.138,2.128.5,4.73-6.738Zm-3.651,5.206-.442-2.945,2.16.508Z" transform="translate(-38.035 -95.719)" fill="#86898c"/>
    <path id="Pfad_3292" data-name="Pfad 3292" d="M83.643,242.332c-.913,2.554,3.583,3.719,3.212,4.759-.173.484-.852.369-1.5.138a6.141,6.141,0,0,1-2.088-1.339l-1.094,1.142a6.6,6.6,0,0,0,2.648,1.69c1.8.643,3.338.379,3.8-.919.976-2.729-3.639-3.565-3.186-4.832.1-.289.479-.561,1.53-.185a6.83,6.83,0,0,1,2.333,1.565l1.16-1.2a7.129,7.129,0,0,0-2.934-1.931c-1.648-.589-3.311-.486-3.881,1.111" transform="translate(-32.251 -94.546)" fill="#86898c"/>
    <path id="Pfad_3293" data-name="Pfad 3293" d="M69.265,237.229,66,235.43l-.8,1.456,3.265,1.8-.818,1.484-3.984-2.194-.8,1.455,5.554,3.059L72.1,235.8l-1.57-.866Z" transform="translate(-24.672 -92.207)" fill="#86898c"/>
    <path id="Pfad_3294" data-name="Pfad 3294" d="M61.685,227.193l-1.429.936-2.832-1.98.389-1.663-1.461-1.021-1.88,8.014,1.793,1.253,6.89-4.511Zm-5.32,3.487.68-2.9,1.82,1.272Z" transform="translate(-21.379 -87.707)" fill="#86898c"/>
    <path id="Pfad_3295" data-name="Pfad 3295" d="M47.456,217.443,44.39,220.79l.529-3.46-.863-.79-3.4.83,3.066-3.347L42.4,212.811l-5.164,5.637,1.2,1.1,4.7-1.151-.727,4.793,1.2,1.1,5.164-5.637Z" transform="translate(-14.614 -83.525)" fill="#86898c"/>
    <rect id="Rechteck_342" data-name="Rechteck 342" width="7.646" height="1.794" transform="translate(19.58 131.473) rotate(-41.773)" fill="#86898c"/>
    <path id="Pfad_3296" data-name="Pfad 3296" d="M31.365,198.2l-1.32,1.01,2.287,2.988-4.751,3.635,1.09,1.425,6.072-4.646Z" transform="translate(-10.825 -77.789)" fill="#86898c"/>
    <rect id="Rechteck_343" data-name="Rechteck 343" width="7.645" height="1.794" transform="translate(12.407 121.885) rotate(-33.14)" fill="#86898c"/>
    <path id="Pfad_3297" data-name="Pfad 3297" d="M19.71,181.532l-1.406.755,2.152,4.007-1.262.677-1.764-3.284-1.406.755,1.764,3.284-1.253.673-2.152-4.007-1.406.755,3,5.586,6.732-3.615Z" transform="translate(-5.094 -71.249)" fill="#86898c"/>
    <path id="Pfad_3298" data-name="Pfad 3298" d="M15.925,173.023l-4.3,1.679,2.855-5.377-.5-1.274-7.121,2.781.648,1.66,4.289-1.674L8.959,176.2l.5,1.274,7.121-2.78Z" transform="translate(-2.694 -65.958)" fill="#86898c"/>
    <path id="Pfad_3299" data-name="Pfad 3299" d="M11.011,157.435a3.518,3.518,0,0,0-4.579-2.675l-3.956.989.435,1.739,4.04-1.01a1.912,1.912,0,1,1,.926,3.7l-4.041,1.01.435,1.739,3.956-.989a3.509,3.509,0,0,0,2.784-4.5" transform="translate(-0.972 -60.683)" fill="#86898c"/>
    <path id="Pfad_3300" data-name="Pfad 3300" d="M8.53,144.13l-4.581.544,4.113-4.484L7.9,138.833l-7.587.9.21,1.769,4.57-.542-4.1,4.494.161,1.357,7.588-.9Z" transform="translate(-0.123 -54.49)" fill="#86898c"/>
    <path id="Pfad_3301" data-name="Pfad 3301" d="M1.732,129.657l5.979-.1-.029-1.792-5.979.1L1.661,125.3,0,125.323l.112,6.929,1.661-.026Z" transform="translate(0 -49.177)" fill="#86898c"/>
    <path id="Pfad_3302" data-name="Pfad 3302" d="M8.606,111.717l-1.587-.173-.494,4.523L5.1,115.912l.405-3.708-1.588-.173-.4,3.708L2.1,115.584l.494-4.523-1.588-.173-.688,6.307,7.6.829Z" transform="translate(-0.124 -43.522)" fill="#86898c"/>
    <path id="Pfad_3303" data-name="Pfad 3303" d="M10.02,102.619l-2.293-.525.361-1.577,2.684-1.192.468-2.047L8.256,98.6a2.557,2.557,0,0,0-1.979-2.035A2.666,2.666,0,0,0,3.063,98.75l-.895,3.912,7.452,1.7ZM6.57,99.7l-.464,2.025-1.929-.442.463-2.025c.178-.778.7-1.051,1.233-.929s.874.593.7,1.371" transform="translate(-0.851 -37.874)" fill="#86898c"/>
    <path id="Pfad_3304" data-name="Pfad 3304" d="M13.649,88.262,9.311,86.69,15,84.531l.466-1.285L8.282,80.641l-.608,1.676L12,83.885,6.318,86.058l-.466,1.285,7.186,2.605Z" transform="translate(-2.297 -31.65)" fill="#86898c"/>
    <path id="Pfad_3305" data-name="Pfad 3305" d="M21.493,70.354l-1.425-.721-2.052,4.061-1.279-.645,1.682-3.329L16.995,69l-1.682,3.329-1.269-.641,2.052-4.061-1.425-.72-2.86,5.661,6.823,3.446Z" transform="translate(-4.635 -26.26)" fill="#86898c"/>
    <path id="Pfad_3306" data-name="Pfad 3306" d="M26.028,62.052l-2.483-1.658,2.01-3.01,2.482,1.658.99-1.482-6.356-4.244-.99,1.482,2.473,1.651-2.01,3.01-2.473-1.651-1,1.491,6.356,4.244Z" transform="translate(-7.33 -20.925)" fill="#86898c"/>
    <path id="Pfad_3307" data-name="Pfad 3307" d="M35.019,49l-3.4-3.008,3.47.469.776-.877-.889-3.386,3.4,3.008,1.189-1.343L33.837,38.79l-1.081,1.221L33.989,44.7l-4.806-.644L28.1,45.272l5.728,5.067Z" transform="translate(-11.03 -15.224)" fill="#86898c"/>
    <path id="Pfad_3308" data-name="Pfad 3308" d="M50.929,34.344l-1.049-1.2-3.428,2.988-.941-1.08,2.81-2.45-1.049-1.2-2.81,2.45-.934-1.071,3.428-2.989-1.049-1.2L41.128,32.75l5.022,5.76Z" transform="translate(-16.142 -11.219)" fill="#86898c"/>
    <path id="Pfad_3309" data-name="Pfad 3309" d="M58.179,28.637l-2.6-3.813L61.459,26.4l1.13-.769-4.3-6.318-1.473,1,2.592,3.8-5.882-1.564-1.129.77,4.3,6.318Z" transform="translate(-20.564 -7.581)" fill="#86898c"/>
    <path id="Pfad_3310" data-name="Pfad 3310" d="M79.984,15c-1.131-2.465-5.161-.158-5.622-1.161-.214-.467.352-.86.977-1.147a6.141,6.141,0,0,1,2.429-.5l-.016-1.581a6.589,6.589,0,0,0-3.074.642c-1.74.8-2.653,2.059-2.078,3.311,1.208,2.634,5.092.009,5.654,1.231.128.278.049.736-.965,1.2a6.8,6.8,0,0,1-2.761.509l.007,1.669a7.113,7.113,0,0,0,3.443-.677c1.59-.73,2.712-1.955,2-3.5" transform="translate(-28.428 -4.161)" fill="#86898c"/>
    <path id="Pfad_3311" data-name="Pfad 3311" d="M89.2,12.589l3.284-1.076,1.1,1.309,1.694-.554L90,5.954l-2.078.68-.532,8.216,1.7-.558Zm.3-4.643,1.911,2.285-2.109.691Z" transform="translate(-34.299 -2.337)" fill="#86898c"/>
    <path id="Pfad_3312" data-name="Pfad 3312" d="M105.6,9.643a2.212,2.212,0,0,0,1.962-2.624,2.1,2.1,0,0,0-1.552-1.564,1.91,1.91,0,0,0,.576-1.689,2.147,2.147,0,0,0-2.695-1.59l-4.29.86,1.506,7.508Zm.13-2.413a.861.861,0,0,1-.789,1.016l-2.37.476-.331-1.652,2.371-.475a.855.855,0,0,1,1.12.635m-1.941-3.505a.768.768,0,0,1,1.007.569c.08.4-.137.763-.716.88l-2.135.428-.29-1.448Z" transform="translate(-39.09 -0.831)" fill="#86898c"/>
    <path id="Pfad_3313" data-name="Pfad 3313" d="M118.175.013A4.025,4.025,0,0,0,114.4,4.355a4.089,4.089,0,0,0,8.154-.617A4.025,4.025,0,0,0,118.175.013m.486,6.421a2.353,2.353,0,0,1-2.48-2.214,2.308,2.308,0,1,1,4.6-.347,2.353,2.353,0,0,1-2.12,2.561" transform="translate(-44.897 0)" fill="#86898c"/>
    <path id="Pfad_3314" data-name="Pfad 3314" d="M176.72,5.889a.76.76,0,0,0,.979-.461.765.765,0,0,0-1.44-.518.761.761,0,0,0,.462.979" transform="translate(-69.161 -1.731)" fill="#86898c"/>
    <path id="Pfad_3315" data-name="Pfad 3315" d="M173.316,4.665a.759.759,0,0,0,.979-.462.765.765,0,0,0-1.44-.517.761.761,0,0,0,.462.979" transform="translate(-67.825 -1.251)" fill="#86898c"/>
    <path id="Pfad_3316" data-name="Pfad 3316" d="M168.83,14.286A3.518,3.518,0,0,0,173.6,11.97l1.38-3.838-1.688-.606-1.409,3.92a1.913,1.913,0,1,1-3.591-1.291l1.409-3.92-1.688-.606-1.38,3.838a3.51,3.51,0,0,0,2.194,4.821" transform="translate(-65.291 -2.209)" fill="#86898c"/>
    <path id="Pfad_3317" data-name="Pfad 3317" d="M183.105,20.5a2.211,2.211,0,0,0,3.165-.85,2.1,2.1,0,0,0-.253-2.189,1.913,1.913,0,0,0,1.5-.971,2.148,2.148,0,0,0-1.136-2.917l-3.9-1.977-3.459,6.833Zm.292-6.756,1.942.984a.767.767,0,0,1,.44,1.069c-.183.361-.58.516-1.107.249l-1.943-.983Zm.813,3.747a.851.851,0,1,1-.761,1.5l-2.157-1.092.761-1.5Z" transform="translate(-70.261 -4.553)" fill="#86898c"/>
    <path id="Pfad_3318" data-name="Pfad 3318" d="M196.78,28.786l.881-1.331-3.795-2.511.791-1.195,3.11,2.058.881-1.332-3.11-2.058.784-1.186,3.795,2.511L201,22.411l-5.29-3.5-4.218,6.376Z" transform="translate(-75.157 -7.422)" fill="#86898c"/>
    <path id="Pfad_3319" data-name="Pfad 3319" d="M203.861,34.268l1.515-1.8,1.238,1.043-.169,2.932L208.05,37.8l.187-3.26a2.558,2.558,0,0,0,2.714-.829,2.665,2.665,0,0,0-.469-3.855l-3.069-2.585-4.925,5.844Zm3.86-4.582,1.589,1.338a1,1,0,1,1-1.275,1.513L206.446,31.2Z" transform="translate(-79.474 -10.703)" fill="#86898c"/>
    <path id="Pfad_3320" data-name="Pfad 3320" d="M225.327,50.185l3.119-2.627-1.155-1.373-3.177,2.677a1.914,1.914,0,1,1-2.459-2.921l3.177-2.678-1.155-1.372-3.119,2.628a3.7,3.7,0,1,0,4.77,5.667" transform="translate(-85.985 -16.442)" fill="#86898c"/>
    <path id="Pfad_3321" data-name="Pfad 3321" d="M227.571,60.563l3.877-2.5L229.725,63.9l.742,1.148,6.421-4.147-.967-1.5-3.867,2.5,1.708-5.841-.741-1.149L226.6,59.056Z" transform="translate(-88.936 -21.551)" fill="#86898c"/>
    <path id="Pfad_3322" data-name="Pfad 3322" d="M238.583,75.411c-.275.134-.734.067-1.225-.934a6.815,6.815,0,0,1-.58-2.748l-1.668.05a7.123,7.123,0,0,0,.755,3.429c.77,1.571,2.032,2.657,3.554,1.911,2.435-1.193.026-5.163,1.018-5.648.461-.227.867.329,1.17.948a6.124,6.124,0,0,1,.563,2.415l1.58-.056a6.577,6.577,0,0,0-.719-3.056c-.842-1.718-2.126-2.6-3.362-1.993-2.6,1.275.12,5.09-1.087,5.683" transform="translate(-92.276 -27.292)" fill="#86898c"/>
    <path id="Pfad_3323" data-name="Pfad 3323" d="M146.5,3.193a2.129,2.129,0,1,0,2.129,2.129A2.129,2.129,0,0,0,146.5,3.193" transform="translate(-56.663 -1.253)" fill="#86898c"/>
    <path id="Pfad_3324" data-name="Pfad 3324" d="M142.5,251.193a2.129,2.129,0,1,0,2.129,2.129,2.129,2.129,0,0,0-2.129-2.129" transform="translate(-55.093 -98.589)" fill="#86898c"/>
  </g>
</svg>
